<svg xmlns="http://www.w3.org/2000/svg" viewBox="0 0 1024 1024">
  <defs>
    <radialGradient id="haloOuter" cx="50%" cy="50%" r="38%">
      <stop offset="0%" stop-color="#FFD982" stop-opacity="0.62" />
      <stop offset="42%" stop-color="#DA9736" stop-opacity="0.20" />
      <stop offset="100%" stop-color="#000000" stop-opacity="0" />
    </radialGradient>
    <radialGradient id="haloInner" cx="50%" cy="50%" r="28%">
      <stop offset="0%" stop-color="#FFF3C1" stop-opacity="0.78" />
      <stop offset="55%" stop-color="#F0B34E" stop-opacity="0.24" />
      <stop offset="100%" stop-color="#000000" stop-opacity="0" />
    </radialGradient>
    <radialGradient id="starFill" cx="50%" cy="48%" r="58%">
      <stop offset="0%" stop-color="#FFE867" />
      <stop offset="26%" stop-color="#FFDA4B" />
      <stop offset="70%" stop-color="#F2BE3A" />
      <stop offset="100%" stop-color="#C97E17" />
    </radialGradient>
    <filter id="blurLarge" x="-50%" y="-50%" width="200%" height="200%">
      <feGaussianBlur stdDeviation="72" />
    </filter>
    <filter id="blurMedium" x="-50%" y="-50%" width="200%" height="200%">
      <feGaussianBlur stdDeviation="30" />
    </filter>
    <filter id="blurSmall" x="-50%" y="-50%" width="200%" height="200%">
      <feGaussianBlur stdDeviation="14" />
    </filter>
  </defs>

  <circle cx="512" cy="512" r="216" fill="url(#haloOuter)" filter="url(#blurLarge)" />
  <circle cx="512" cy="512" r="148" fill="url(#haloInner)" filter="url(#blurMedium)" />

  <polygon
    points="512,214 560,424 688,344 598,486 826,512 598,538 688,680 560,600 512,810 464,600 336,680 426,538 198,512 426,486 336,344 464,424"
    fill="#E3A43C"
    opacity="0.82"
    filter="url(#blurMedium)" />

  <polygon
    points="512,214 560,424 688,344 598,486 826,512 598,538 688,680 560,600 512,810 464,600 336,680 426,538 198,512 426,486 336,344 464,424"
    fill="url(#starFill)" />

  <polygon
    points="512,290 548,448 644,388 576,492 748,512 576,532 644,636 548,576 512,734 476,576 380,636 448,532 276,512 448,492 380,388 476,448"
    fill="#FFE16B"
    opacity="0.95"
    filter="url(#blurSmall)" />

  <circle cx="512" cy="512" r="74" fill="#FFD83D" opacity="0.98" filter="url(#blurSmall)" />

  <g opacity="0.78">
    <polygon
      points="942,898 956,930 988,944 956,958 942,990 928,958 896,944 928,930"
      fill="#D7D4CF"
      filter="url(#blurSmall)" />
    <polygon
      points="942,898 956,930 988,944 956,958 942,990 928,958 896,944 928,930"
      fill="#D7D4CF" />
  </g>
</svg>
